<svg width="607" height="141" viewBox="0 0 607 141" fill="none" xmlns="http://www.w3.org/2000/svg">
<path d="M61.7672 51.984L61.4072 54H41.6792L42.0392 51.984L46.0712 51.48C46.7432 51.384 47.1752 51.24 47.3672 51.048C47.6072 50.856 47.8232 50.304 48.0152 49.392L50.8952 32.976L43.3352 11.088C42.9512 9.984 42.6392 9.216 42.3992 8.784C42.2072 8.304 41.9912 7.992 41.7512 7.848C41.5592 7.704 41.2232 7.608 40.7432 7.56L36.8552 7.056L37.2152 5.04H57.5192L57.1592 7.056L53.1272 7.56C52.3592 7.656 51.9272 7.872 51.8312 8.208C51.7832 8.496 52.0232 9.456 52.5512 11.088L58.5272 29.664L71.4152 11.088C72.5192 9.504 73.0712 8.544 73.0712 8.208C73.1192 7.824 72.8072 7.608 72.1352 7.56L68.2472 7.056L68.6072 5.04H82.9352L82.5752 7.056L78.5432 7.56C78.0632 7.608 77.6792 7.704 77.3912 7.848C77.1032 7.992 76.7672 8.304 76.3832 8.784C76.0472 9.216 75.4952 9.984 74.7272 11.088L59.5352 32.976L56.9432 47.952C56.6552 49.584 56.5592 50.568 56.6552 50.904C56.7512 51.192 57.1592 51.384 57.8792 51.48L61.7672 51.984ZM106.723 36.432L106.435 37.944C105.427 43.224 103.315 47.352 100.099 50.328C96.9313 53.256 92.7793 54.72 87.6433 54.72C84.1393 54.72 81.2593 53.856 79.0033 52.128C76.7473 50.4 75.1873 48.048 74.3233 45.072C73.4593 42.096 73.3633 38.76 74.0353 35.064L74.3233 33.552C75.3313 28.272 77.4193 24.168 80.5873 21.24C83.8033 18.264 87.9553 16.776 93.0433 16.776C96.5953 16.776 99.4993 17.664 101.755 19.44C104.059 21.168 105.643 23.52 106.507 26.496C107.371 29.424 107.443 32.736 106.723 36.432ZM98.2273 34.272C99.2353 28.848 99.2113 25.008 98.1553 22.752C97.1473 20.448 95.4913 19.296 93.1873 19.296C90.6913 19.296 88.6273 20.376 86.9953 22.536C85.3633 24.696 84.1153 28.128 83.2513 32.832L82.4593 37.224C81.4993 42.648 81.5233 46.512 82.5313 48.816C83.5873 51.072 85.2433 52.2 87.4993 52.2C90.0433 52.2 92.1313 51.12 93.7633 48.96C95.3953 46.8 96.6193 43.368 97.4353 38.664L98.2273 34.272ZM144.281 54.36C142.169 54.36 140.465 53.76 139.169 52.56C137.921 51.312 137.249 49.56 137.153 47.304C135.233 49.848 133.217 51.72 131.105 52.92C128.993 54.12 126.809 54.72 124.553 54.72C121.289 54.72 118.841 53.592 117.209 51.336C115.625 49.032 115.193 45.84 115.913 41.76L119.081 23.544C119.369 21.912 119.465 20.952 119.369 20.664C119.273 20.328 118.841 20.112 118.073 20.016L114.185 19.512L114.545 17.496H128.441L124.193 41.688C123.617 45 123.593 47.424 124.121 48.96C124.649 50.448 125.585 51.192 126.929 51.192C127.793 51.192 128.801 50.928 129.953 50.4C131.153 49.824 132.425 48.84 133.769 47.448C135.161 46.008 136.529 43.968 137.873 41.328L142.121 17.496H150.401L145.865 43.2C145.241 46.56 144.953 48.792 145.001 49.896C145.049 50.952 145.433 51.48 146.153 51.48C146.825 51.48 147.545 51.096 148.313 50.328C149.081 49.56 149.777 48.264 150.401 46.44L153.209 48.024C152.153 50.232 150.881 51.84 149.393 52.848C147.905 53.856 146.201 54.36 144.281 54.36ZM179.011 21.816C177.955 21.816 176.707 22.44 175.267 23.688C173.875 24.888 172.339 27.192 170.659 30.6L166.555 54H158.275L163.603 23.472C163.891 21.888 163.987 20.952 163.891 20.664C163.795 20.328 163.387 20.112 162.667 20.016L158.779 19.512L159.139 17.496H172.531L171.235 24.696C174.883 19.416 178.771 16.776 182.899 16.776C184.483 16.776 185.899 17.256 187.147 18.216C188.395 19.128 189.259 20.856 189.739 23.4L182.683 26.856C182.347 24.888 181.843 23.568 181.171 22.896C180.499 22.176 179.779 21.816 179.011 21.816ZM237.235 54.36C235.123 54.36 233.419 53.76 232.123 52.56C230.875 51.312 230.203 49.56 230.107 47.304C228.187 49.848 226.171 51.72 224.059 52.92C221.947 54.12 219.763 54.72 217.507 54.72C214.243 54.72 211.795 53.592 210.163 51.336C208.579 49.032 208.147 45.84 208.867 41.76L212.035 23.544C212.323 21.912 212.419 20.952 212.323 20.664C212.227 20.328 211.795 20.112 211.027 20.016L207.139 19.512L207.499 17.496H221.395L217.147 41.688C216.571 45 216.547 47.424 217.075 48.96C217.603 50.448 218.539 51.192 219.883 51.192C220.747 51.192 221.755 50.928 222.907 50.4C224.107 49.824 225.379 48.84 226.723 47.448C228.115 46.008 229.483 43.968 230.827 41.328L235.075 17.496H243.355L238.819 43.2C238.195 46.56 237.907 48.792 237.955 49.896C238.003 50.952 238.387 51.48 239.107 51.48C239.779 51.48 240.499 51.096 241.267 50.328C242.035 49.56 242.731 48.264 243.355 46.44L246.163 48.024C245.107 50.232 243.835 51.84 242.347 52.848C240.859 53.856 239.155 54.36 237.235 54.36ZM291.116 48.024C290.06 50.232 288.788 51.84 287.3 52.848C285.812 53.856 284.108 54.36 282.188 54.36C279.548 54.36 277.58 53.448 276.284 51.624C274.988 49.752 274.676 47.136 275.348 43.776L278.156 29.808C278.828 26.496 278.852 24.096 278.228 22.608C277.604 21.072 276.548 20.304 275.06 20.304C274.196 20.304 273.14 20.592 271.892 21.168C270.644 21.696 269.3 22.68 267.86 24.12C266.468 25.56 265.076 27.624 263.684 30.312L259.508 54H251.228L256.556 23.544C256.844 21.912 256.94 20.952 256.844 20.664C256.748 20.328 256.34 20.112 255.62 20.016L251.732 19.512L252.092 17.496H265.484L264.26 24.552C266.228 21.864 268.316 19.896 270.524 18.648C272.78 17.4 275.084 16.776 277.436 16.776C280.844 16.776 283.388 17.904 285.068 20.16C286.796 22.416 287.252 25.608 286.436 29.736L283.772 43.2C283.148 46.512 282.836 48.72 282.836 49.824C282.884 50.928 283.292 51.48 284.06 51.48C284.732 51.48 285.452 51.096 286.22 50.328C286.988 49.56 287.684 48.264 288.308 46.44L291.116 48.024ZM307.822 11.16C306.43 11.16 305.326 10.776 304.51 10.008C303.742 9.24 303.358 8.184 303.358 6.84C303.358 5.352 303.838 4.08 304.798 3.024C305.758 1.968 307.054 1.44 308.686 1.44C310.078 1.44 311.158 1.824 311.926 2.592C312.742 3.36 313.15 4.416 313.15 5.76C313.15 7.248 312.67 8.52 311.71 9.576C310.798 10.632 309.502 11.16 307.822 11.16ZM296.302 19.512L296.662 17.496H310.486L306.022 43.2C305.446 46.56 305.158 48.792 305.158 49.896C305.206 50.952 305.59 51.48 306.31 51.48C306.982 51.48 307.702 51.096 308.47 50.328C309.238 49.56 309.934 48.264 310.558 46.44L313.366 48.024C312.31 50.232 311.038 51.84 309.55 52.848C308.062 53.856 306.358 54.36 304.438 54.36C301.798 54.36 299.854 53.448 298.606 51.624C297.358 49.752 297.022 47.136 297.598 43.776L301.126 23.544C301.414 21.912 301.51 20.952 301.414 20.664C301.318 20.328 300.91 20.112 300.19 20.016L296.302 19.512ZM317.802 19.512L318.162 17.496H332.058L328.53 38.304C327.714 43.104 327.642 46.464 328.314 48.384C328.986 50.256 330.306 51.192 332.274 51.192C333.378 51.192 334.578 50.88 335.874 50.256C337.218 49.584 338.514 48.384 339.762 46.656C341.01 44.928 342.018 42.48 342.786 39.312C343.602 36.096 344.01 31.968 344.01 26.928C344.01 25.776 343.986 24.576 343.938 23.328C343.89 22.08 343.818 20.784 343.722 19.44L352.29 16.776C352.146 23.4 351.33 29.112 349.842 33.912C348.402 38.712 346.554 42.648 344.298 45.72C342.042 48.792 339.594 51.072 336.954 52.56C334.362 54 331.842 54.72 329.394 54.72C327.186 54.72 325.266 54.12 323.634 52.92C322.05 51.72 320.922 49.92 320.25 47.52C319.626 45.072 319.626 42.024 320.25 38.376L322.77 23.544C323.058 21.912 323.154 20.952 323.058 20.664C322.962 20.328 322.506 20.112 321.69 20.016L317.802 19.512ZM385.543 46.944C383.863 49.872 381.751 51.912 379.207 53.064C376.663 54.168 374.071 54.72 371.431 54.72C367.927 54.72 364.999 53.904 362.647 52.272C360.343 50.64 358.735 48.384 357.823 45.504C356.959 42.576 356.863 39.168 357.535 35.28L357.823 33.696C358.447 30.336 359.623 27.408 361.351 24.912C363.127 22.368 365.359 20.376 368.047 18.936C370.735 17.496 373.735 16.776 377.047 16.776C379.543 16.776 381.631 17.184 383.311 18C384.991 18.816 386.263 19.896 387.127 21.24C387.991 22.536 388.423 23.928 388.423 25.416C388.423 27.912 387.583 30.048 385.903 31.824C384.223 33.6 381.895 35.016 378.919 36.072C375.991 37.08 372.583 37.728 368.695 38.016L365.959 38.232C364.567 47.544 366.607 52.2 372.079 52.2C373.135 52.2 374.287 51.984 375.535 51.552C376.783 51.072 377.959 50.28 379.063 49.176C380.215 48.072 381.103 46.608 381.727 44.784L385.543 46.944ZM366.823 32.76L366.319 35.712L368.623 35.568C372.079 35.328 374.719 34.68 376.543 33.624C378.415 32.52 379.687 31.2 380.359 29.664C381.079 28.128 381.439 26.616 381.439 25.128C381.439 23.304 381.007 21.888 380.143 20.88C379.327 19.824 378.151 19.296 376.615 19.296C374.455 19.296 372.487 20.376 370.711 22.536C368.935 24.648 367.639 28.056 366.823 32.76ZM414.276 21.816C413.22 21.816 411.972 22.44 410.532 23.688C409.14 24.888 407.604 27.192 405.924 30.6L401.82 54H393.54L398.868 23.472C399.156 21.888 399.252 20.952 399.156 20.664C399.06 20.328 398.652 20.112 397.932 20.016L394.044 19.512L394.404 17.496H407.796L406.5 24.696C410.148 19.416 414.036 16.776 418.164 16.776C419.748 16.776 421.164 17.256 422.412 18.216C423.66 19.128 424.524 20.856 425.004 23.4L417.948 26.856C417.612 24.888 417.108 23.568 416.436 22.896C415.764 22.176 415.044 21.816 414.276 21.816ZM436.887 54.72C435.015 54.72 433.095 54.48 431.127 54C429.159 53.472 427.479 52.536 426.087 51.192C424.695 49.848 423.855 47.928 423.567 45.432L428.607 43.56C428.367 46.728 429.015 48.96 430.551 50.256C432.135 51.552 434.199 52.2 436.743 52.2C439.479 52.2 441.495 51.6 442.791 50.4C444.087 49.2 444.735 47.736 444.735 46.008C444.735 44.664 444.303 43.56 443.439 42.696C442.623 41.784 441.135 40.92 438.975 40.104L434.871 38.52C432.423 37.56 430.527 36.24 429.183 34.56C427.839 32.88 427.167 30.864 427.167 28.512C427.167 26.592 427.647 24.744 428.607 22.968C429.567 21.192 431.103 19.728 433.215 18.576C435.327 17.376 438.087 16.776 441.495 16.776C444.615 16.776 447.183 17.328 449.199 18.432C451.263 19.488 452.679 20.904 453.447 22.68C454.215 24.408 454.239 26.304 453.519 28.368L445.383 29.52C446.439 26.256 446.583 23.736 445.815 21.96C445.047 20.184 443.415 19.296 440.919 19.296C438.999 19.296 437.463 19.824 436.311 20.88C435.159 21.936 434.583 23.376 434.583 25.2C434.583 26.976 435.063 28.32 436.023 29.232C437.031 30.144 438.279 30.888 439.767 31.464L443.799 33.048C446.343 34.056 448.359 35.352 449.847 36.936C451.383 38.472 452.151 40.584 452.151 43.272C452.151 45.336 451.599 47.232 450.495 48.96C449.439 50.688 447.783 52.08 445.527 53.136C443.271 54.192 440.391 54.72 436.887 54.72ZM487.918 46.944C486.238 49.872 484.126 51.912 481.582 53.064C479.038 54.168 476.446 54.72 473.806 54.72C470.302 54.72 467.374 53.904 465.022 52.272C462.718 50.64 461.11 48.384 460.198 45.504C459.334 42.576 459.238 39.168 459.91 35.28L460.198 33.696C460.822 30.336 461.998 27.408 463.726 24.912C465.502 22.368 467.734 20.376 470.422 18.936C473.11 17.496 476.11 16.776 479.422 16.776C481.918 16.776 484.006 17.184 485.686 18C487.366 18.816 488.638 19.896 489.502 21.24C490.366 22.536 490.798 23.928 490.798 25.416C490.798 27.912 489.958 30.048 488.278 31.824C486.598 33.6 484.27 35.016 481.294 36.072C478.366 37.08 474.958 37.728 471.07 38.016L468.334 38.232C466.942 47.544 468.982 52.2 474.454 52.2C475.51 52.2 476.662 51.984 477.91 51.552C479.158 51.072 480.334 50.28 481.438 49.176C482.59 48.072 483.478 46.608 484.102 44.784L487.918 46.944ZM469.198 32.76L468.694 35.712L470.998 35.568C474.454 35.328 477.094 34.68 478.918 33.624C480.79 32.52 482.062 31.2 482.734 29.664C483.454 28.128 483.814 26.616 483.814 25.128C483.814 23.304 483.382 21.888 482.518 20.88C481.702 19.824 480.526 19.296 478.99 19.296C476.83 19.296 474.862 20.376 473.086 22.536C471.31 24.648 470.014 28.056 469.198 32.76ZM544.489 36.432L544.201 37.944C543.193 43.224 541.081 47.352 537.865 50.328C534.697 53.256 530.545 54.72 525.409 54.72C521.905 54.72 519.025 53.856 516.769 52.128C514.513 50.4 512.953 48.048 512.089 45.072C511.225 42.096 511.129 38.76 511.801 35.064L512.089 33.552C513.097 28.272 515.185 24.168 518.353 21.24C521.569 18.264 525.721 16.776 530.809 16.776C534.361 16.776 537.265 17.664 539.521 19.44C541.825 21.168 543.409 23.52 544.273 26.496C545.137 29.424 545.209 32.736 544.489 36.432ZM535.993 34.272C537.001 28.848 536.977 25.008 535.921 22.752C534.913 20.448 533.257 19.296 530.953 19.296C528.457 19.296 526.393 20.376 524.761 22.536C523.129 24.696 521.881 28.128 521.017 32.832L520.225 37.224C519.265 42.648 519.289 46.512 520.297 48.816C521.353 51.072 523.009 52.2 525.265 52.2C527.809 52.2 529.897 51.12 531.529 48.96C533.161 46.8 534.385 43.368 535.201 38.664L535.993 34.272ZM577.223 20.016H566.423L557.711 69.336H549.431L557.567 23.544C557.855 21.912 557.927 20.952 557.783 20.664C557.687 20.328 557.279 20.112 556.559 20.016L552.671 19.512L553.031 17.496H558.575L559.295 13.608C559.727 11.112 560.495 8.856 561.599 6.84C562.703 4.776 564.263 3.12 566.279 1.872C568.343 0.623996 570.983 -4.29153e-06 574.199 -4.29153e-06C577.223 -4.29153e-06 579.599 0.575997 581.327 1.728C583.055 2.832 584.183 4.224 584.711 5.904C585.287 7.584 585.287 9.288 584.711 11.016L576.575 12.168C577.679 8.664 577.967 6.192 577.439 4.752C576.959 3.264 575.855 2.52 574.127 2.52C573.167 2.52 572.303 2.784 571.535 3.312C570.767 3.84 570.071 4.8 569.447 6.192C568.823 7.536 568.271 9.528 567.791 12.168L566.855 17.496H577.655L577.223 20.016ZM61.8659 134.024C60.8099 136.232 59.5379 137.84 58.0499 138.848C56.5619 139.856 54.8579 140.36 52.9379 140.36C50.2979 140.36 48.3299 139.448 47.0339 137.624C45.7379 135.752 45.4259 133.136 46.0979 129.776L48.9059 115.808C49.5779 112.496 49.6019 110.096 48.9779 108.608C48.4019 107.072 47.4659 106.304 46.1699 106.304C45.3059 106.304 44.2739 106.592 43.0739 107.168C41.9219 107.696 40.6739 108.68 39.3299 110.12C37.9859 111.512 36.6179 113.528 35.2259 116.168L31.0499 140H22.7699L27.0179 115.808C27.5939 112.496 27.5939 110.096 27.0179 108.608C26.4899 107.072 25.5779 106.304 24.2819 106.304C23.4179 106.304 22.3859 106.592 21.1859 107.168C20.0339 107.696 18.7859 108.68 17.4419 110.12C16.0979 111.56 14.7299 113.6 13.3379 116.24L9.08988 140H0.809875L6.13788 109.544C6.42588 107.912 6.52188 106.952 6.42587 106.664C6.32988 106.328 5.92188 106.112 5.20188 106.016L1.31388 105.512L1.67387 103.496H15.0659L13.8419 110.48C15.8099 107.792 17.8499 105.848 19.9619 104.648C22.1219 103.4 24.3539 102.776 26.6579 102.776C29.2019 102.776 31.2419 103.472 32.7779 104.864C34.3619 106.256 35.2739 108.224 35.5139 110.768C37.4819 107.984 39.5459 105.968 41.7059 104.72C43.9139 103.424 46.1939 102.776 48.5459 102.776C51.8099 102.776 54.2579 103.904 55.8899 106.16C57.5699 108.416 58.0019 111.608 57.1859 115.736L54.5219 129.2C53.8979 132.512 53.5859 134.72 53.5859 135.824C53.6339 136.928 54.0419 137.48 54.8099 137.48C55.4819 137.48 56.2019 137.096 56.9699 136.328C57.7379 135.56 58.4339 134.264 59.0579 132.44L61.8659 134.024ZM100.008 122.432L99.7204 123.944C98.7124 129.224 96.6004 133.352 93.3844 136.328C90.2164 139.256 86.0644 140.72 80.9284 140.72C77.4244 140.72 74.5444 139.856 72.2884 138.128C70.0324 136.4 68.4724 134.048 67.6084 131.072C66.7444 128.096 66.6484 124.76 67.3204 121.064L67.6084 119.552C68.6164 114.272 70.7044 110.168 73.8724 107.24C77.0884 104.264 81.2404 102.776 86.3284 102.776C89.8804 102.776 92.7844 103.664 95.0404 105.44C97.3444 107.168 98.9284 109.52 99.7924 112.496C100.656 115.424 100.728 118.736 100.008 122.432ZM91.5124 120.272C92.5204 114.848 92.4964 111.008 91.4404 108.752C90.4324 106.448 88.7764 105.296 86.4724 105.296C83.9764 105.296 81.9124 106.376 80.2804 108.536C78.6484 110.696 77.4004 114.128 76.5364 118.832L75.7444 123.224C74.7844 128.648 74.8084 132.512 75.8164 134.816C76.8724 137.072 78.5284 138.2 80.7844 138.2C83.3284 138.2 85.4164 137.12 87.0484 134.96C88.6804 132.8 89.9044 129.368 90.7204 124.664L91.5124 120.272ZM107.111 105.512L107.471 103.496H121.367L117.839 124.304C117.023 129.104 116.951 132.464 117.623 134.384C118.295 136.256 119.615 137.192 121.583 137.192C122.687 137.192 123.887 136.88 125.183 136.256C126.527 135.584 127.823 134.384 129.071 132.656C130.319 130.928 131.327 128.48 132.095 125.312C132.911 122.096 133.319 117.968 133.319 112.928C133.319 111.776 133.295 110.576 133.247 109.328C133.199 108.08 133.127 106.784 133.031 105.44L141.599 102.776C141.455 109.4 140.639 115.112 139.151 119.912C137.711 124.712 135.863 128.648 133.607 131.72C131.351 134.792 128.903 137.072 126.263 138.56C123.671 140 121.151 140.72 118.703 140.72C116.495 140.72 114.575 140.12 112.943 138.92C111.359 137.72 110.231 135.92 109.559 133.52C108.935 131.072 108.935 128.024 109.559 124.376L112.079 109.544C112.367 107.912 112.463 106.952 112.367 106.664C112.271 106.328 111.815 106.112 110.999 106.016L107.111 105.512ZM158.372 97.16C156.98 97.16 155.876 96.776 155.06 96.008C154.292 95.24 153.908 94.184 153.908 92.84C153.908 91.352 154.388 90.08 155.348 89.024C156.308 87.968 157.604 87.44 159.236 87.44C160.628 87.44 161.708 87.824 162.476 88.592C163.292 89.36 163.7 90.416 163.7 91.76C163.7 93.248 163.22 94.52 162.26 95.576C161.348 96.632 160.052 97.16 158.372 97.16ZM146.852 105.512L147.212 103.496H161.036L156.572 129.2C155.996 132.56 155.708 134.792 155.708 135.896C155.756 136.952 156.14 137.48 156.86 137.48C157.532 137.48 158.252 137.096 159.02 136.328C159.788 135.56 160.484 134.264 161.108 132.44L163.916 134.024C162.86 136.232 161.588 137.84 160.1 138.848C158.612 139.856 156.908 140.36 154.988 140.36C152.348 140.36 150.404 139.448 149.156 137.624C147.908 135.752 147.572 133.136 148.148 129.776L151.676 109.544C151.964 107.912 152.06 106.952 151.964 106.664C151.868 106.328 151.46 106.112 150.74 106.016L146.852 105.512ZM196.649 132.944C194.969 135.872 192.857 137.912 190.313 139.064C187.769 140.168 185.177 140.72 182.537 140.72C179.033 140.72 176.105 139.904 173.753 138.272C171.449 136.64 169.841 134.384 168.929 131.504C168.065 128.576 167.969 125.168 168.641 121.28L168.929 119.696C169.553 116.336 170.729 113.408 172.457 110.912C174.233 108.368 176.465 106.376 179.153 104.936C181.841 103.496 184.841 102.776 188.153 102.776C190.649 102.776 192.737 103.184 194.417 104C196.097 104.816 197.369 105.896 198.233 107.24C199.097 108.536 199.529 109.928 199.529 111.416C199.529 113.912 198.689 116.048 197.009 117.824C195.329 119.6 193.001 121.016 190.025 122.072C187.097 123.08 183.689 123.728 179.801 124.016L177.065 124.232C175.673 133.544 177.713 138.2 183.185 138.2C184.241 138.2 185.393 137.984 186.641 137.552C187.889 137.072 189.065 136.28 190.169 135.176C191.321 134.072 192.209 132.608 192.833 130.784L196.649 132.944ZM177.929 118.76L177.425 121.712L179.729 121.568C183.185 121.328 185.825 120.68 187.649 119.624C189.521 118.52 190.793 117.2 191.465 115.664C192.185 114.128 192.545 112.616 192.545 111.128C192.545 109.304 192.113 107.888 191.249 106.88C190.433 105.824 189.257 105.296 187.721 105.296C185.561 105.296 183.593 106.376 181.817 108.536C180.041 110.648 178.745 114.056 177.929 118.76ZM215.086 140.72C213.214 140.72 211.294 140.48 209.326 140C207.358 139.472 205.678 138.536 204.286 137.192C202.894 135.848 202.054 133.928 201.766 131.432L206.806 129.56C206.566 132.728 207.214 134.96 208.75 136.256C210.334 137.552 212.398 138.2 214.942 138.2C217.678 138.2 219.694 137.6 220.99 136.4C222.286 135.2 222.934 133.736 222.934 132.008C222.934 130.664 222.502 129.56 221.638 128.696C220.822 127.784 219.334 126.92 217.174 126.104L213.07 124.52C210.622 123.56 208.726 122.24 207.382 120.56C206.038 118.88 205.366 116.864 205.366 114.512C205.366 112.592 205.846 110.744 206.806 108.968C207.766 107.192 209.302 105.728 211.414 104.576C213.526 103.376 216.286 102.776 219.694 102.776C222.814 102.776 225.382 103.328 227.398 104.432C229.462 105.488 230.878 106.904 231.646 108.68C232.414 110.408 232.438 112.304 231.718 114.368L223.582 115.52C224.638 112.256 224.782 109.736 224.014 107.96C223.246 106.184 221.614 105.296 219.118 105.296C217.198 105.296 215.662 105.824 214.51 106.88C213.358 107.936 212.782 109.376 212.782 111.2C212.782 112.976 213.262 114.32 214.222 115.232C215.23 116.144 216.478 116.888 217.966 117.464L221.998 119.048C224.542 120.056 226.558 121.352 228.046 122.936C229.582 124.472 230.35 126.584 230.35 129.272C230.35 131.336 229.798 133.232 228.694 134.96C227.638 136.688 225.982 138.08 223.726 139.136C221.47 140.192 218.59 140.72 215.086 140.72ZM282.723 140.36C280.755 140.36 279.147 139.832 277.899 138.776C276.699 137.672 275.979 136.112 275.739 134.096C274.203 136.64 272.523 138.392 270.699 139.352C268.875 140.264 267.003 140.72 265.083 140.72C262.155 140.72 259.779 139.832 257.955 138.056C256.179 136.28 254.979 133.88 254.355 130.856C253.779 127.832 253.827 124.496 254.499 120.848L254.787 119.264C255.459 115.664 256.635 112.64 258.315 110.192C259.995 107.744 261.987 105.896 264.291 104.648C266.643 103.4 269.115 102.776 271.707 102.776C275.403 102.776 278.211 104.024 280.131 106.52C281.235 106.232 282.363 105.848 283.515 105.368C284.715 104.888 285.843 104.264 286.899 103.496H288.843L284.307 129.2C283.683 132.56 283.395 134.792 283.443 135.896C283.491 136.952 283.875 137.48 284.595 137.48C285.267 137.48 285.987 137.096 286.755 136.328C287.523 135.56 288.219 134.264 288.843 132.44L291.651 134.024C290.595 136.232 289.323 137.84 287.835 138.848C286.347 139.856 284.643 140.36 282.723 140.36ZM263.139 122.144C262.227 127.424 262.155 131.36 262.923 133.952C263.739 136.496 265.059 137.768 266.883 137.768C267.555 137.768 268.371 137.552 269.331 137.12C270.339 136.64 271.419 135.728 272.571 134.384C273.771 132.992 274.971 130.952 276.171 128.264L279.339 110.12C278.571 108.44 277.563 107.288 276.315 106.664C275.115 105.992 273.891 105.656 272.643 105.656C270.147 105.656 268.203 106.784 266.811 109.04C265.467 111.296 264.459 114.416 263.787 118.4L263.139 122.144ZM336.573 134.024C335.517 136.232 334.245 137.84 332.757 138.848C331.269 139.856 329.565 140.36 327.645 140.36C325.005 140.36 323.037 139.448 321.741 137.624C320.445 135.752 320.133 133.136 320.805 129.776L323.613 115.808C324.285 112.496 324.309 110.096 323.685 108.608C323.061 107.072 322.005 106.304 320.517 106.304C319.653 106.304 318.597 106.592 317.349 107.168C316.101 107.696 314.757 108.68 313.317 110.12C311.925 111.56 310.533 113.624 309.141 116.312L304.965 140H296.685L302.013 109.544C302.301 107.912 302.397 106.952 302.301 106.664C302.205 106.328 301.797 106.112 301.077 106.016L297.189 105.512L297.549 103.496H310.941L309.717 110.552C311.685 107.864 313.773 105.896 315.981 104.648C318.237 103.4 320.541 102.776 322.893 102.776C326.301 102.776 328.845 103.904 330.525 106.16C332.253 108.416 332.709 111.608 331.893 115.736L329.229 129.2C328.605 132.512 328.293 134.72 328.293 135.824C328.341 136.928 328.749 137.48 329.517 137.48C330.189 137.48 330.909 137.096 331.677 136.328C332.445 135.56 333.141 134.264 333.765 132.44L336.573 134.024ZM370.055 140.36C367.943 140.36 366.263 139.736 365.015 138.488C363.767 137.24 363.095 135.488 362.999 133.232C361.367 136.064 359.639 138.032 357.815 139.136C356.039 140.192 354.167 140.72 352.199 140.72C349.319 140.72 346.967 139.832 345.143 138.056C343.367 136.28 342.167 133.88 341.543 130.856C340.967 127.832 341.015 124.496 341.687 120.848L341.975 119.264C342.647 115.664 343.823 112.64 345.503 110.192C347.183 107.744 349.199 105.896 351.551 104.648C353.903 103.4 356.375 102.776 358.967 102.776C362.567 102.776 365.351 103.952 367.319 106.304L369.695 92.768C369.983 91.136 370.079 90.176 369.983 89.888C369.887 89.552 369.479 89.336 368.759 89.24L364.943 88.736L365.231 86.72H379.127L371.639 129.2C371.015 132.56 370.727 134.792 370.775 135.896C370.823 136.952 371.207 137.48 371.927 137.48C372.599 137.48 373.319 137.096 374.087 136.328C374.855 135.56 375.551 134.264 376.175 132.44L378.983 134.024C377.927 136.232 376.655 137.84 375.167 138.848C373.679 139.856 371.975 140.36 370.055 140.36ZM350.327 122.144C349.415 127.424 349.343 131.36 350.111 133.952C350.927 136.496 352.271 137.768 354.143 137.768C354.815 137.768 355.655 137.48 356.663 136.904C357.671 136.328 358.775 135.2 359.975 133.52C361.223 131.84 362.519 129.392 363.863 126.176L366.671 110.12C365.855 108.44 364.823 107.288 363.575 106.664C362.375 105.992 361.151 105.656 359.903 105.656C357.359 105.656 355.391 106.784 353.999 109.04C352.655 111.296 351.647 114.416 350.975 118.4L350.327 122.144ZM410.625 140.72C408.753 140.72 406.833 140.48 404.865 140C402.897 139.472 401.217 138.536 399.825 137.192C398.433 135.848 397.593 133.928 397.305 131.432L402.345 129.56C402.105 132.728 402.753 134.96 404.289 136.256C405.873 137.552 407.937 138.2 410.481 138.2C413.217 138.2 415.233 137.6 416.529 136.4C417.825 135.2 418.473 133.736 418.473 132.008C418.473 130.664 418.041 129.56 417.177 128.696C416.361 127.784 414.873 126.92 412.713 126.104L408.609 124.52C406.161 123.56 404.265 122.24 402.921 120.56C401.577 118.88 400.905 116.864 400.905 114.512C400.905 112.592 401.385 110.744 402.345 108.968C403.305 107.192 404.841 105.728 406.953 104.576C409.065 103.376 411.825 102.776 415.233 102.776C418.353 102.776 420.921 103.328 422.937 104.432C425.001 105.488 426.417 106.904 427.185 108.68C427.953 110.408 427.977 112.304 427.257 114.368L419.121 115.52C420.177 112.256 420.321 109.736 419.553 107.96C418.785 106.184 417.153 105.296 414.657 105.296C412.737 105.296 411.201 105.824 410.049 106.88C408.897 107.936 408.321 109.376 408.321 111.2C408.321 112.976 408.801 114.32 409.761 115.232C410.769 116.144 412.017 116.888 413.505 117.464L417.537 119.048C420.081 120.056 422.097 121.352 423.585 122.936C425.121 124.472 425.889 126.584 425.889 129.272C425.889 131.336 425.337 133.232 424.233 134.96C423.177 136.688 421.521 138.08 419.265 139.136C417.009 140.192 414.129 140.72 410.625 140.72ZM473.393 134.024C472.337 136.232 471.065 137.84 469.577 138.848C468.089 139.856 466.385 140.36 464.465 140.36C461.825 140.36 459.857 139.448 458.561 137.624C457.265 135.752 456.953 133.136 457.625 129.776L460.433 115.808C461.105 112.496 461.129 110.096 460.505 108.608C459.881 107.072 458.825 106.304 457.337 106.304C456.473 106.304 455.417 106.592 454.169 107.168C452.921 107.696 451.577 108.68 450.137 110.12C448.745 111.56 447.353 113.648 445.961 116.384L441.785 140H433.505L441.785 92.768C442.073 91.136 442.169 90.176 442.073 89.888C441.977 89.552 441.569 89.336 440.849 89.24L436.961 88.736L437.321 86.72H451.145L447.113 109.832C448.985 107.384 450.977 105.608 453.089 104.504C455.249 103.352 457.457 102.776 459.713 102.776C463.121 102.776 465.665 103.904 467.345 106.16C469.073 108.416 469.529 111.608 468.713 115.736L466.049 129.2C465.425 132.512 465.113 134.72 465.113 135.824C465.161 136.928 465.569 137.48 466.337 137.48C467.009 137.48 467.729 137.096 468.497 136.328C469.265 135.56 469.961 134.264 470.585 132.44L473.393 134.024ZM510.915 122.432L510.627 123.944C509.619 129.224 507.507 133.352 504.291 136.328C501.123 139.256 496.971 140.72 491.835 140.72C488.331 140.72 485.451 139.856 483.195 138.128C480.939 136.4 479.379 134.048 478.515 131.072C477.651 128.096 477.555 124.76 478.227 121.064L478.515 119.552C479.523 114.272 481.611 110.168 484.779 107.24C487.995 104.264 492.147 102.776 497.235 102.776C500.787 102.776 503.691 103.664 505.947 105.44C508.251 107.168 509.835 109.52 510.699 112.496C511.563 115.424 511.635 118.736 510.915 122.432ZM502.419 120.272C503.427 114.848 503.403 111.008 502.347 108.752C501.339 106.448 499.683 105.296 497.379 105.296C494.883 105.296 492.819 106.376 491.187 108.536C489.555 110.696 488.307 114.128 487.443 118.832L486.651 123.224C485.691 128.648 485.715 132.512 486.723 134.816C487.779 137.072 489.435 138.2 491.691 138.2C494.235 138.2 496.323 137.12 497.955 134.96C499.587 132.8 500.811 129.368 501.627 124.664L502.419 120.272ZM572.809 102.776C572.665 109.4 571.873 115.112 570.433 119.912C568.993 124.712 567.169 128.648 564.961 131.72C562.753 134.792 560.377 137.072 557.833 138.56C555.337 140 552.937 140.72 550.633 140.72C548.233 140.72 546.193 140 544.513 138.56C542.881 137.072 541.873 134.84 541.489 131.864C539.521 134.936 537.409 137.192 535.153 138.632C532.945 140.024 530.665 140.72 528.313 140.72C525.049 140.72 522.625 139.592 521.041 137.336C519.457 135.032 519.025 131.84 519.745 127.76L522.913 109.544C523.201 107.912 523.297 106.952 523.201 106.664C523.105 106.328 522.673 106.112 521.905 106.016L518.017 105.512L518.377 103.496H532.273L528.025 127.688C527.449 131 527.305 133.424 527.593 134.96C527.881 136.448 528.817 137.192 530.401 137.192C531.313 137.192 532.369 136.904 533.569 136.328C534.769 135.704 536.041 134.648 537.385 133.16C538.729 131.672 540.073 129.56 541.417 126.824C541.465 126.44 541.513 126.056 541.561 125.672C541.657 125.24 541.729 124.808 541.777 124.376L545.305 103.496H553.585L550.057 124.304C549.289 129.056 549.169 132.392 549.697 134.312C550.273 136.232 551.473 137.192 553.297 137.192C554.257 137.192 555.361 136.88 556.609 136.256C557.905 135.584 559.153 134.384 560.353 132.656C561.553 130.928 562.537 128.48 563.305 125.312C564.121 122.096 564.529 117.968 564.529 112.928C564.529 111.776 564.505 110.576 564.457 109.328C564.409 108.08 564.337 106.784 564.241 105.44L572.809 102.776ZM588.726 140.72C586.854 140.72 584.934 140.48 582.966 140C580.998 139.472 579.318 138.536 577.926 137.192C576.534 135.848 575.694 133.928 575.406 131.432L580.446 129.56C580.206 132.728 580.854 134.96 582.39 136.256C583.974 137.552 586.038 138.2 588.582 138.2C591.318 138.2 593.334 137.6 594.63 136.4C595.926 135.2 596.574 133.736 596.574 132.008C596.574 130.664 596.142 129.56 595.278 128.696C594.462 127.784 592.974 126.92 590.814 126.104L586.71 124.52C584.262 123.56 582.366 122.24 581.022 120.56C579.678 118.88 579.006 116.864 579.006 114.512C579.006 112.592 579.486 110.744 580.446 108.968C581.406 107.192 582.942 105.728 585.054 104.576C587.166 103.376 589.926 102.776 593.334 102.776C596.454 102.776 599.022 103.328 601.038 104.432C603.102 105.488 604.518 106.904 605.286 108.68C606.054 110.408 606.078 112.304 605.358 114.368L597.222 115.52C598.278 112.256 598.422 109.736 597.654 107.96C596.886 106.184 595.254 105.296 592.758 105.296C590.838 105.296 589.302 105.824 588.15 106.88C586.998 107.936 586.422 109.376 586.422 111.2C586.422 112.976 586.902 114.32 587.862 115.232C588.87 116.144 590.118 116.888 591.606 117.464L595.638 119.048C598.182 120.056 600.198 121.352 601.686 122.936C603.222 124.472 603.99 126.584 603.99 129.272C603.99 131.336 603.438 133.232 602.334 134.96C601.278 136.688 599.622 138.08 597.366 139.136C595.11 140.192 592.23 140.72 588.726 140.72Z" fill="url(#paint0_linear_48_21)"/>
<defs>
<linearGradient id="paint0_linear_48_21" x1="-23" y1="57.5" x2="628" y2="57.5" gradientUnits="userSpaceOnUse">
<stop stop-color="#F4BFBF"/>
<stop offset="1" stop-color="#A674AF"/>
</linearGradient>
</defs>
</svg>
