<svg width="98" height="18" viewBox="0 0 98 18" fill="none" xmlns="http://www.w3.org/2000/svg">
<path d="M1.574 14.294C1.574 14.294 1.62533 11.9693 1.728 7.32C1.728 5.472 1.618 4.284 1.398 3.756L0.32 2.084L0.386 1.754C1.42733 1.51933 2.92333 1.402 4.874 1.402C5.15267 1.82733 5.292 2.61933 5.292 3.778C5.292 4.922 5.21867 6.46933 5.072 8.42C4.92533 10.356 4.852 11.852 4.852 12.908C4.852 13.964 5.10133 14.492 5.6 14.492C5.89333 14.492 6.31867 14.2573 6.876 13.788C7.43333 13.304 7.91 12.7833 8.306 12.226C8.62867 8.91133 8.79 6.67467 8.79 5.516C8.79 4.35733 8.62867 3.27933 8.306 2.282C9.08333 1.886 10.3593 1.58533 12.134 1.38C12.2953 1.908 12.376 2.656 12.376 3.624C12.376 4.57733 12.222 6.242 11.914 8.618C11.6207 10.994 11.474 12.5707 11.474 13.348C11.474 14.1107 11.694 14.492 12.134 14.492C12.5887 14.492 13.1973 14.0667 13.96 13.216C14.7227 12.3653 15.4193 11.3093 16.05 10.048C16.6953 8.772 17.0547 7.62067 17.128 6.594L14.796 5.23C14.8987 4.35 15.104 3.59467 15.412 2.964C15.7347 2.31867 16.028 1.89333 16.292 1.688L16.688 1.38C17.5827 1.38 18.2647 1.61467 18.734 2.084C19.218 2.53867 19.46 3.08133 19.46 3.712C19.46 4.9 19.1593 6.286 18.558 7.87C17.9713 9.454 17.238 10.9353 16.358 12.314C15.4927 13.6927 14.5027 14.866 13.388 15.834C12.2733 16.7873 11.2467 17.264 10.308 17.264C9.75067 17.264 9.252 17 8.812 16.472C8.38667 15.944 8.16667 15.2693 8.152 14.448C7.50667 15.328 6.82467 16.0173 6.106 16.516C5.38733 17.0147 4.698 17.264 4.038 17.264C3.378 17.264 2.79867 16.9927 2.3 16.45C1.816 15.8927 1.574 15.174 1.574 14.294ZM25.8098 7.892C25.8391 7.86267 25.9198 7.672 26.0518 7.32C26.7411 7.32 27.6651 7.52533 28.8238 7.936C28.4571 9.15333 28.1638 10.4293 27.9438 11.764C27.7238 13.084 27.6138 14.03 27.6138 14.602C27.6138 15.1593 27.6724 15.438 27.7898 15.438C27.8778 15.438 28.2004 15.2987 28.7578 15.02L29.0218 14.888L29.4178 15.658C29.2858 15.7753 29.1098 15.922 28.8898 16.098C28.6844 16.274 28.2884 16.516 27.7018 16.824C27.1151 17.1173 26.5871 17.264 26.1178 17.264C25.2084 17.264 24.6804 16.8533 24.5338 16.032C23.5951 16.8533 22.7444 17.264 21.9818 17.264C21.2338 17.264 20.5958 16.9707 20.0678 16.384C19.5544 15.7973 19.2978 14.8733 19.2978 13.612C19.2978 11.6467 19.7011 10.0993 20.5078 8.97C21.3144 7.826 22.2898 7.254 23.4338 7.254C24.2551 7.254 25.0471 7.46667 25.8098 7.892ZM23.3018 15.394C23.6538 15.394 24.0498 15.2547 24.4898 14.976C24.5924 12.908 24.9371 10.862 25.5238 8.838C25.0838 8.64733 24.7098 8.552 24.4017 8.552C23.8738 8.552 23.4191 9.07267 23.0378 10.114C22.6711 11.1407 22.4878 12.2773 22.4878 13.524C22.4878 14.7707 22.7591 15.394 23.3018 15.394ZM36.7101 7.518C36.6807 7.88467 36.5561 8.31 36.3361 8.794C35.7787 8.73533 35.2507 8.706 34.7521 8.706H34.3561C33.6814 11.9767 33.3441 14.0153 33.3441 14.822C33.3441 15.2473 33.4321 15.46 33.6081 15.46C33.7987 15.46 34.2901 15.2767 35.0821 14.91L35.4781 15.636C34.1727 16.7213 32.9627 17.264 31.8481 17.264C31.3347 17.264 30.9094 17.1027 30.5721 16.78C30.2494 16.4573 30.0881 16.032 30.0881 15.504C30.0881 14.9613 30.1467 14.3527 30.2641 13.678C30.3961 13.0033 30.5721 12.182 30.7921 11.214C31.0121 10.2313 31.1734 9.43933 31.2761 8.838C30.7334 8.882 30.3301 8.926 30.0661 8.97C30.0367 8.794 30.0221 8.55933 30.0221 8.266C30.0221 7.958 30.0441 7.70867 30.0881 7.518H31.4741C31.5914 6.726 31.6501 5.978 31.6501 5.274L31.6281 4.592V4.526C32.7721 4.13 33.8501 3.932 34.8621 3.932C34.9207 4.22533 34.9501 4.592 34.9501 5.032C34.9501 5.472 34.8254 6.30067 34.5761 7.518H36.7101ZM41.3723 8.354C40.7857 8.354 40.3163 8.84533 39.9643 9.828C39.6123 10.796 39.4363 11.8373 39.4363 12.952C39.4363 14.712 39.979 15.592 41.0643 15.592C41.4163 15.592 41.7903 15.5113 42.1863 15.35C42.5823 15.174 42.8977 15.0053 43.1323 14.844L43.4623 14.58L43.9683 15.262C43.851 15.4233 43.6163 15.636 43.2643 15.9C42.9123 16.164 42.5823 16.384 42.2743 16.56C41.9663 16.736 41.5703 16.8973 41.0863 17.044C40.6023 17.1907 40.1257 17.264 39.6563 17.264C38.5123 17.264 37.6543 16.89 37.0823 16.142C36.5103 15.394 36.2243 14.3893 36.2243 13.128C36.2243 11.3827 36.701 9.96733 37.6543 8.882C38.6223 7.79667 39.8617 7.254 41.3723 7.254C42.355 7.254 43.1323 7.48133 43.7043 7.936C44.291 8.376 44.5843 8.926 44.5843 9.586C44.5843 10.2313 44.379 10.7887 43.9683 11.258C43.6017 11.258 43.1763 11.1773 42.6923 11.016C42.2083 10.8547 41.8417 10.6567 41.5923 10.422L41.9223 8.486C41.7903 8.398 41.607 8.354 41.3723 8.354ZM47.6305 2.48C47.6305 1.996 47.5865 1.65133 47.4985 1.446C48.6425 1.05 49.7205 0.851999 50.7325 0.851999C50.8645 0.983999 50.9305 1.32133 50.9305 1.864C50.9305 2.832 50.5198 5.06133 49.6985 8.552C50.8865 7.68667 51.9278 7.254 52.8225 7.254C53.3798 7.254 53.7978 7.43 54.0765 7.782C54.3698 8.134 54.5165 8.60333 54.5165 9.19C54.5165 9.762 54.3478 10.708 54.0105 12.028C53.6732 13.3333 53.5045 14.228 53.5045 14.712C53.5045 15.196 53.5632 15.438 53.6805 15.438C53.7978 15.438 54.1058 15.306 54.6045 15.042L54.8685 14.91L55.2645 15.68C55.1325 15.7973 54.9565 15.944 54.7365 16.12C54.5165 16.296 54.1132 16.5307 53.5265 16.824C52.9398 17.1173 52.3972 17.264 51.8985 17.264C51.4145 17.264 51.0258 17.11 50.7325 16.802C50.4392 16.4793 50.2925 16.054 50.2925 15.526C50.2925 14.9833 50.4538 14.008 50.7765 12.6C51.1138 11.1773 51.2825 10.2827 51.2825 9.916C51.2825 9.53467 51.1285 9.344 50.8205 9.344C50.4392 9.344 49.9625 9.50533 49.3905 9.828C48.5838 13.3773 48.1805 15.68 48.1805 16.736C47.5645 16.9707 46.5158 17.088 45.0345 17.088C45.0198 16.8387 45.0125 16.6187 45.0125 16.428C45.0125 15.7973 45.4452 13.6413 46.3105 9.96C47.1905 6.27867 47.6305 3.78533 47.6305 2.48ZM58.1045 7.254C58.7499 7.254 59.2265 7.386 59.5345 7.65C59.8572 7.914 60.0185 8.45667 60.0185 9.278C60.0185 9.718 59.8865 10.62 59.6225 11.984C59.3585 13.3333 59.2265 14.1547 59.2265 14.448C59.2265 15.0347 59.3439 15.328 59.5785 15.328C60.1359 15.328 60.7445 14.9173 61.4045 14.096C62.0792 13.26 62.4312 12.5633 62.4605 12.006L60.9645 10.334C61.0232 9.70333 61.1772 9.13133 61.4265 8.618C61.6759 8.10467 61.9105 7.74533 62.1305 7.54L62.4385 7.254C63.0692 7.254 63.5459 7.42267 63.8685 7.76C64.1912 8.09733 64.3525 8.49333 64.3525 8.948C64.3525 10.1067 64.0665 11.3313 63.4945 12.622C62.9225 13.9127 62.1599 15.0127 61.2065 15.922C60.2532 16.8167 59.2852 17.264 58.3025 17.264C57.6865 17.264 57.2099 17.0733 56.8725 16.692C56.5499 16.3107 56.3885 15.812 56.3885 15.196C56.3885 14.5653 56.4325 13.722 56.5205 12.666C56.6232 11.61 56.6745 10.5613 56.6745 9.52C56.6745 9.28533 56.5865 9.00667 56.4105 8.684C56.2492 8.36133 56.0805 8.10467 55.9045 7.914L55.9705 7.65C56.7625 7.386 57.4739 7.254 58.1045 7.254ZM64.5408 13.194C64.5408 11.3607 65.0908 9.916 66.1908 8.86C67.3054 7.78933 68.5668 7.254 69.9748 7.254C70.8401 7.254 71.5514 7.46667 72.1088 7.892C72.6661 8.31733 72.9448 8.88933 72.9448 9.608C72.9448 10.312 72.7614 10.906 72.3948 11.39C72.0428 11.874 71.6101 12.248 71.0968 12.512C70.0554 13.0253 69.1021 13.348 68.2368 13.48L67.7088 13.546C67.8114 14.9247 68.3761 15.614 69.4028 15.614C69.7548 15.614 70.1288 15.526 70.5248 15.35C70.9208 15.174 71.2288 14.998 71.4488 14.822L71.7788 14.558L72.3068 15.262C72.1894 15.4233 71.9548 15.636 71.6028 15.9C71.2508 16.164 70.9208 16.384 70.6128 16.56C69.7621 17.0293 68.8308 17.264 67.8188 17.264C66.8068 17.264 66.0074 16.9047 65.4207 16.186C64.8341 15.4673 64.5408 14.47 64.5408 13.194ZM67.6868 12.468C68.4348 12.336 69.0288 12.0207 69.4688 11.522C69.9088 11.0233 70.1288 10.378 70.1288 9.586C70.1288 8.794 69.8941 8.398 69.4248 8.398C68.8674 8.398 68.4348 8.87467 68.1268 9.828C67.8334 10.7667 67.6868 11.6467 67.6868 12.468ZM73.8559 17.066H73.7019C73.6725 16.9487 73.6579 16.6847 73.6579 16.274C73.6579 15.8487 73.8559 14.7193 74.2519 12.886C74.6479 11.0527 74.8459 10.004 74.8459 9.74C74.8459 9.28533 74.6405 8.78667 74.2299 8.244L74.0319 7.98L74.0539 7.694C74.8459 7.474 76.1145 7.364 77.8599 7.364C78.0359 7.74533 78.1239 8.28067 78.1239 8.97C78.2852 8.706 78.6225 8.354 79.1359 7.914C79.6492 7.474 80.1772 7.254 80.7199 7.254C81.5119 7.254 81.9079 7.94333 81.9079 9.322C81.8345 9.41 81.7319 9.52733 81.5999 9.674C81.4825 9.806 81.2332 9.99667 80.8519 10.246C80.4852 10.4953 80.1259 10.6493 79.7739 10.708C79.7592 10.708 79.6345 10.51 79.3999 10.114C79.1652 9.718 78.9892 9.52 78.8719 9.52C78.5052 9.652 78.1825 9.872 77.9039 10.18C77.2292 13.216 76.8919 15.1813 76.8919 16.076C76.8919 16.3987 76.8992 16.626 76.9139 16.758C76.4005 16.9633 75.3812 17.066 73.8559 17.066ZM88.5498 14.118C88.5498 15.042 88.1391 15.7973 87.3178 16.384C86.5111 16.9707 85.5871 17.264 84.5458 17.264C83.5045 17.264 82.6758 17.044 82.0598 16.604C81.4585 16.164 81.1578 15.7753 81.1578 15.438C81.1578 15.2327 81.4145 14.9027 81.9278 14.448C82.4411 13.9787 82.8738 13.6927 83.2258 13.59C83.9591 14.1327 84.5605 14.9907 85.0298 16.164C85.5725 16.12 85.8438 15.8633 85.8438 15.394C85.8438 14.7193 85.2498 13.766 84.0618 12.534C82.8738 11.2873 82.2798 10.2973 82.2798 9.564C82.2798 8.83067 82.6098 8.266 83.2698 7.87C83.9298 7.45933 84.7218 7.254 85.6458 7.254C86.5845 7.254 87.2885 7.42267 87.7578 7.76C88.2271 8.08267 88.4618 8.53 88.4618 9.102C88.4618 9.65933 88.0145 10.4367 87.1198 11.434C87.2225 11.5367 87.3545 11.676 87.5158 11.852C87.6771 12.0133 87.8898 12.3287 88.1538 12.798C88.4178 13.2673 88.5498 13.7073 88.5498 14.118ZM86.4378 10.664C87.0538 10.136 87.3618 9.61533 87.3618 9.102C87.3618 8.58867 87.0098 8.332 86.3058 8.332C85.9685 8.332 85.6898 8.40533 85.4698 8.552C85.2498 8.684 85.1398 8.838 85.1398 9.014C85.1398 9.33667 85.4625 9.79133 86.1078 10.378L86.4378 10.664ZM89.4841 13.194C89.4841 11.3607 90.0341 9.916 91.1341 8.86C92.2488 7.78933 93.5101 7.254 94.9181 7.254C95.7834 7.254 96.4948 7.46667 97.0521 7.892C97.6094 8.31733 97.8881 8.88933 97.8881 9.608C97.8881 10.312 97.7048 10.906 97.3381 11.39C96.9861 11.874 96.5534 12.248 96.0401 12.512C94.9988 13.0253 94.0454 13.348 93.1801 13.48L92.6521 13.546C92.7548 14.9247 93.3194 15.614 94.3461 15.614C94.6981 15.614 95.0721 15.526 95.4681 15.35C95.8641 15.174 96.1721 14.998 96.3921 14.822L96.7221 14.558L97.2501 15.262C97.1328 15.4233 96.8981 15.636 96.5461 15.9C96.1941 16.164 95.8641 16.384 95.5561 16.56C94.7054 17.0293 93.7741 17.264 92.7621 17.264C91.7501 17.264 90.9508 16.9047 90.3641 16.186C89.7774 15.4673 89.4841 14.47 89.4841 13.194ZM92.6301 12.468C93.3781 12.336 93.9721 12.0207 94.4121 11.522C94.8521 11.0233 95.0721 10.378 95.0721 9.586C95.0721 8.794 94.8374 8.398 94.3681 8.398C93.8108 8.398 93.3781 8.87467 93.0701 9.828C92.7768 10.7667 92.6301 11.6467 92.6301 12.468Z" fill="white"/>
</svg>
